<mxfile host="app.diagrams.net" agent="Mozilla/5.0 (Windows NT 10.0; Win64; x64) AppleWebKit/537.36 (KHTML, like Gecko) Chrome/128.0.0.0 YaBrowser/24.10.0.0 Safari/537.36" version="24.8.6">
  <diagram name="Страница — 1" id="Kaxd3F5-YJgUeU7WElb8">
    <mxGraphModel dx="1974" dy="2063" grid="1" gridSize="10" guides="1" tooltips="1" connect="1" arrows="1" fold="1" page="1" pageScale="1" pageWidth="827" pageHeight="1169" math="0" shadow="0">
      <root>
        <mxCell id="0" />
        <mxCell id="1" parent="0" />
        <mxCell id="_o-piemT-sgfUzoHXEhJ-6" value="" style="edgeStyle=orthogonalEdgeStyle;rounded=0;orthogonalLoop=1;jettySize=auto;html=1;" edge="1" parent="1" source="_o-piemT-sgfUzoHXEhJ-2" target="_o-piemT-sgfUzoHXEhJ-5">
          <mxGeometry relative="1" as="geometry" />
        </mxCell>
        <mxCell id="_o-piemT-sgfUzoHXEhJ-8" value="" style="edgeStyle=orthogonalEdgeStyle;rounded=0;orthogonalLoop=1;jettySize=auto;html=1;" edge="1" parent="1" source="_o-piemT-sgfUzoHXEhJ-2" target="_o-piemT-sgfUzoHXEhJ-7">
          <mxGeometry relative="1" as="geometry" />
        </mxCell>
        <mxCell id="_o-piemT-sgfUzoHXEhJ-10" value="" style="edgeStyle=orthogonalEdgeStyle;rounded=0;orthogonalLoop=1;jettySize=auto;html=1;" edge="1" parent="1" source="_o-piemT-sgfUzoHXEhJ-2" target="_o-piemT-sgfUzoHXEhJ-9">
          <mxGeometry relative="1" as="geometry" />
        </mxCell>
        <mxCell id="_o-piemT-sgfUzoHXEhJ-12" value="" style="edgeStyle=orthogonalEdgeStyle;rounded=0;orthogonalLoop=1;jettySize=auto;html=1;" edge="1" parent="1" source="_o-piemT-sgfUzoHXEhJ-2" target="_o-piemT-sgfUzoHXEhJ-11">
          <mxGeometry relative="1" as="geometry" />
        </mxCell>
        <mxCell id="_o-piemT-sgfUzoHXEhJ-2" value="&lt;b&gt;Безопасность данных&lt;/b&gt;" style="html=1;whiteSpace=wrap;fillColor=#FFFFFF;" vertex="1" parent="1">
          <mxGeometry x="390" y="570" width="110" height="50" as="geometry" />
        </mxCell>
        <mxCell id="_o-piemT-sgfUzoHXEhJ-26" value="" style="edgeStyle=orthogonalEdgeStyle;rounded=0;orthogonalLoop=1;jettySize=auto;html=1;" edge="1" parent="1" source="_o-piemT-sgfUzoHXEhJ-5" target="_o-piemT-sgfUzoHXEhJ-25">
          <mxGeometry relative="1" as="geometry" />
        </mxCell>
        <mxCell id="_o-piemT-sgfUzoHXEhJ-5" value="Конфиденциальные данные" style="html=1;whiteSpace=wrap;fillColor=#7D4914;" vertex="1" parent="1">
          <mxGeometry x="580" y="570" width="110" height="50" as="geometry" />
        </mxCell>
        <mxCell id="_o-piemT-sgfUzoHXEhJ-31" value="" style="edgeStyle=orthogonalEdgeStyle;rounded=0;orthogonalLoop=1;jettySize=auto;html=1;" edge="1" parent="1" source="_o-piemT-sgfUzoHXEhJ-7" target="_o-piemT-sgfUzoHXEhJ-30">
          <mxGeometry relative="1" as="geometry" />
        </mxCell>
        <mxCell id="_o-piemT-sgfUzoHXEhJ-7" value="Внутренние данные" style="html=1;whiteSpace=wrap;fillColor=#6666FF;" vertex="1" parent="1">
          <mxGeometry x="390" y="440" width="110" height="50" as="geometry" />
        </mxCell>
        <mxCell id="_o-piemT-sgfUzoHXEhJ-20" value="" style="edgeStyle=orthogonalEdgeStyle;rounded=0;orthogonalLoop=1;jettySize=auto;html=1;" edge="1" parent="1" source="_o-piemT-sgfUzoHXEhJ-9" target="_o-piemT-sgfUzoHXEhJ-19">
          <mxGeometry relative="1" as="geometry" />
        </mxCell>
        <mxCell id="_o-piemT-sgfUzoHXEhJ-9" value="Публичные данные&lt;div&gt;&lt;br&gt;&lt;/div&gt;" style="html=1;whiteSpace=wrap;fillColor=#006600;" vertex="1" parent="1">
          <mxGeometry x="200" y="570" width="110" height="50" as="geometry" />
        </mxCell>
        <mxCell id="_o-piemT-sgfUzoHXEhJ-47" value="" style="edgeStyle=orthogonalEdgeStyle;rounded=0;orthogonalLoop=1;jettySize=auto;html=1;" edge="1" parent="1" source="_o-piemT-sgfUzoHXEhJ-11" target="_o-piemT-sgfUzoHXEhJ-46">
          <mxGeometry relative="1" as="geometry" />
        </mxCell>
        <mxCell id="_o-piemT-sgfUzoHXEhJ-11" value="Секретные данные" style="html=1;whiteSpace=wrap;fillColor=#FF6363;" vertex="1" parent="1">
          <mxGeometry x="390" y="700" width="110" height="50" as="geometry" />
        </mxCell>
        <mxCell id="_o-piemT-sgfUzoHXEhJ-22" value="" style="edgeStyle=orthogonalEdgeStyle;rounded=0;orthogonalLoop=1;jettySize=auto;html=1;" edge="1" parent="1" source="_o-piemT-sgfUzoHXEhJ-19">
          <mxGeometry relative="1" as="geometry">
            <mxPoint x="-70" y="595" as="targetPoint" />
          </mxGeometry>
        </mxCell>
        <mxCell id="_o-piemT-sgfUzoHXEhJ-19" value="&lt;div&gt;Витрина продаж&lt;br&gt;(каталоги жилья)&lt;/div&gt;" style="html=1;whiteSpace=wrap;" vertex="1" parent="1">
          <mxGeometry x="10" y="570" width="110" height="50" as="geometry" />
        </mxCell>
        <mxCell id="_o-piemT-sgfUzoHXEhJ-23" value="Искажение данных&lt;br&gt;Риск: незначительный" style="html=1;whiteSpace=wrap;" vertex="1" parent="1">
          <mxGeometry x="-180" y="570" width="110" height="50" as="geometry" />
        </mxCell>
        <mxCell id="_o-piemT-sgfUzoHXEhJ-29" value="" style="edgeStyle=orthogonalEdgeStyle;rounded=0;orthogonalLoop=1;jettySize=auto;html=1;" edge="1" parent="1" source="_o-piemT-sgfUzoHXEhJ-25" target="_o-piemT-sgfUzoHXEhJ-28">
          <mxGeometry relative="1" as="geometry" />
        </mxCell>
        <mxCell id="_o-piemT-sgfUzoHXEhJ-25" value="Персональные данные пользователей" style="html=1;whiteSpace=wrap;" vertex="1" parent="1">
          <mxGeometry x="770" y="570" width="110" height="50" as="geometry" />
        </mxCell>
        <mxCell id="_o-piemT-sgfUzoHXEhJ-28" value="Утечка данных&lt;br&gt;Риск: критический" style="html=1;whiteSpace=wrap;" vertex="1" parent="1">
          <mxGeometry x="960" y="570" width="110" height="50" as="geometry" />
        </mxCell>
        <mxCell id="_o-piemT-sgfUzoHXEhJ-39" value="" style="edgeStyle=orthogonalEdgeStyle;rounded=0;orthogonalLoop=1;jettySize=auto;html=1;" edge="1" parent="1" source="_o-piemT-sgfUzoHXEhJ-30" target="_o-piemT-sgfUzoHXEhJ-38">
          <mxGeometry relative="1" as="geometry" />
        </mxCell>
        <mxCell id="_o-piemT-sgfUzoHXEhJ-30" value="BI-отчёты" style="html=1;whiteSpace=wrap;" vertex="1" parent="1">
          <mxGeometry x="390" y="310" width="110" height="50" as="geometry" />
        </mxCell>
        <mxCell id="_o-piemT-sgfUzoHXEhJ-41" value="" style="edgeStyle=orthogonalEdgeStyle;rounded=0;orthogonalLoop=1;jettySize=auto;html=1;" edge="1" parent="1" source="_o-piemT-sgfUzoHXEhJ-32" target="_o-piemT-sgfUzoHXEhJ-40">
          <mxGeometry relative="1" as="geometry" />
        </mxCell>
        <mxCell id="_o-piemT-sgfUzoHXEhJ-32" value="Данные об объектах недвижимости" style="html=1;whiteSpace=wrap;" vertex="1" parent="1">
          <mxGeometry x="550" y="310" width="110" height="50" as="geometry" />
        </mxCell>
        <mxCell id="_o-piemT-sgfUzoHXEhJ-37" value="" style="edgeStyle=orthogonalEdgeStyle;rounded=0;orthogonalLoop=1;jettySize=auto;html=1;" edge="1" parent="1" source="_o-piemT-sgfUzoHXEhJ-33" target="_o-piemT-sgfUzoHXEhJ-36">
          <mxGeometry relative="1" as="geometry" />
        </mxCell>
        <mxCell id="_o-piemT-sgfUzoHXEhJ-33" value="Бухгалтерия" style="html=1;whiteSpace=wrap;" vertex="1" parent="1">
          <mxGeometry x="230" y="310" width="110" height="50" as="geometry" />
        </mxCell>
        <mxCell id="_o-piemT-sgfUzoHXEhJ-34" value="" style="edgeStyle=orthogonalEdgeStyle;rounded=0;orthogonalLoop=1;jettySize=auto;html=1;entryX=0.434;entryY=1.019;entryDx=0;entryDy=0;entryPerimeter=0;exitX=0.75;exitY=0;exitDx=0;exitDy=0;" edge="1" parent="1" source="_o-piemT-sgfUzoHXEhJ-7" target="_o-piemT-sgfUzoHXEhJ-32">
          <mxGeometry relative="1" as="geometry">
            <mxPoint x="455" y="450" as="sourcePoint" />
            <mxPoint x="455" y="370" as="targetPoint" />
          </mxGeometry>
        </mxCell>
        <mxCell id="_o-piemT-sgfUzoHXEhJ-35" value="" style="edgeStyle=orthogonalEdgeStyle;rounded=0;orthogonalLoop=1;jettySize=auto;html=1;entryX=0.5;entryY=1;entryDx=0;entryDy=0;exitX=0.151;exitY=0.019;exitDx=0;exitDy=0;exitPerimeter=0;" edge="1" parent="1" source="_o-piemT-sgfUzoHXEhJ-7" target="_o-piemT-sgfUzoHXEhJ-33">
          <mxGeometry relative="1" as="geometry">
            <mxPoint x="483" y="450" as="sourcePoint" />
            <mxPoint x="608" y="371" as="targetPoint" />
          </mxGeometry>
        </mxCell>
        <mxCell id="_o-piemT-sgfUzoHXEhJ-36" value="Утечка данных&lt;br&gt;Риск: значительный&lt;div&gt;&lt;br&gt;&lt;/div&gt;" style="html=1;whiteSpace=wrap;" vertex="1" parent="1">
          <mxGeometry x="230" y="170" width="110" height="60" as="geometry" />
        </mxCell>
        <mxCell id="_o-piemT-sgfUzoHXEhJ-38" value="Утечка/искажение данных&amp;nbsp;&lt;br&gt;Риск: значителньый" style="html=1;whiteSpace=wrap;" vertex="1" parent="1">
          <mxGeometry x="390" y="170" width="110" height="60" as="geometry" />
        </mxCell>
        <mxCell id="_o-piemT-sgfUzoHXEhJ-40" value="Искажение данных&lt;br&gt;Риск: значительный" style="html=1;whiteSpace=wrap;" vertex="1" parent="1">
          <mxGeometry x="550" y="170" width="110" height="60" as="geometry" />
        </mxCell>
        <mxCell id="_o-piemT-sgfUzoHXEhJ-45" value="" style="edgeStyle=orthogonalEdgeStyle;rounded=0;orthogonalLoop=1;jettySize=auto;html=1;" edge="1" parent="1" source="_o-piemT-sgfUzoHXEhJ-42" target="_o-piemT-sgfUzoHXEhJ-44">
          <mxGeometry relative="1" as="geometry" />
        </mxCell>
        <mxCell id="_o-piemT-sgfUzoHXEhJ-42" value="&lt;div&gt;Информация о компании&lt;/div&gt;" style="html=1;whiteSpace=wrap;" vertex="1" parent="1">
          <mxGeometry x="10" y="470" width="110" height="50" as="geometry" />
        </mxCell>
        <mxCell id="_o-piemT-sgfUzoHXEhJ-43" value="" style="edgeStyle=orthogonalEdgeStyle;rounded=0;orthogonalLoop=1;jettySize=auto;html=1;exitX=0;exitY=0.25;exitDx=0;exitDy=0;entryX=1;entryY=0.5;entryDx=0;entryDy=0;" edge="1" parent="1" source="_o-piemT-sgfUzoHXEhJ-9" target="_o-piemT-sgfUzoHXEhJ-42">
          <mxGeometry relative="1" as="geometry">
            <mxPoint x="210" y="605" as="sourcePoint" />
            <mxPoint x="130" y="605" as="targetPoint" />
          </mxGeometry>
        </mxCell>
        <mxCell id="_o-piemT-sgfUzoHXEhJ-44" value="&lt;div&gt;Искажение данных&lt;br&gt;Риск: незначительный&lt;/div&gt;" style="html=1;whiteSpace=wrap;" vertex="1" parent="1">
          <mxGeometry x="-180" y="470" width="110" height="50" as="geometry" />
        </mxCell>
        <mxCell id="_o-piemT-sgfUzoHXEhJ-53" value="" style="edgeStyle=orthogonalEdgeStyle;rounded=0;orthogonalLoop=1;jettySize=auto;html=1;" edge="1" parent="1" source="_o-piemT-sgfUzoHXEhJ-46" target="_o-piemT-sgfUzoHXEhJ-52">
          <mxGeometry relative="1" as="geometry" />
        </mxCell>
        <mxCell id="_o-piemT-sgfUzoHXEhJ-46" value="Платёжные данные собственников" style="html=1;whiteSpace=wrap;" vertex="1" parent="1">
          <mxGeometry x="390" y="830" width="110" height="50" as="geometry" />
        </mxCell>
        <mxCell id="_o-piemT-sgfUzoHXEhJ-51" value="" style="edgeStyle=orthogonalEdgeStyle;rounded=0;orthogonalLoop=1;jettySize=auto;html=1;" edge="1" parent="1" source="_o-piemT-sgfUzoHXEhJ-48" target="_o-piemT-sgfUzoHXEhJ-50">
          <mxGeometry relative="1" as="geometry" />
        </mxCell>
        <mxCell id="_o-piemT-sgfUzoHXEhJ-48" value="Платёжные сделки клиентов" style="html=1;whiteSpace=wrap;" vertex="1" parent="1">
          <mxGeometry x="240" y="830" width="110" height="50" as="geometry" />
        </mxCell>
        <mxCell id="_o-piemT-sgfUzoHXEhJ-49" value="" style="edgeStyle=orthogonalEdgeStyle;rounded=0;orthogonalLoop=1;jettySize=auto;html=1;exitX=0.25;exitY=1;exitDx=0;exitDy=0;entryX=0.5;entryY=0;entryDx=0;entryDy=0;" edge="1" parent="1" source="_o-piemT-sgfUzoHXEhJ-11" target="_o-piemT-sgfUzoHXEhJ-48">
          <mxGeometry relative="1" as="geometry">
            <mxPoint x="455" y="760" as="sourcePoint" />
            <mxPoint x="455" y="840" as="targetPoint" />
          </mxGeometry>
        </mxCell>
        <mxCell id="_o-piemT-sgfUzoHXEhJ-50" value="Утечка данных&lt;br&gt;Риск: критический" style="html=1;whiteSpace=wrap;" vertex="1" parent="1">
          <mxGeometry x="240" y="960" width="110" height="50" as="geometry" />
        </mxCell>
        <mxCell id="_o-piemT-sgfUzoHXEhJ-52" value="Утечка данных&lt;br&gt;Риск: критический" style="html=1;whiteSpace=wrap;" vertex="1" parent="1">
          <mxGeometry x="390" y="960" width="110" height="50" as="geometry" />
        </mxCell>
        <mxCell id="_o-piemT-sgfUzoHXEhJ-54" value="Риск потери/искажения публичных данных оценивается как незначительный и несет минимальные убытки" style="shape=note;size=20;whiteSpace=wrap;html=1;" vertex="1" parent="1">
          <mxGeometry x="-410" y="470" width="160" height="140" as="geometry" />
        </mxCell>
        <mxCell id="_o-piemT-sgfUzoHXEhJ-55" value="Утечка внутренних данных оценивается как значительный риск, ведущий к штрафам, потере лояльности клиентов, ошибкам управленческих решений и тд" style="shape=note;size=20;whiteSpace=wrap;html=1;" vertex="1" parent="1">
          <mxGeometry x="355" y="-20" width="180" height="130" as="geometry" />
        </mxCell>
        <mxCell id="_o-piemT-sgfUzoHXEhJ-56" value="Утечка конфиденциальны данных оценивается как критическая и может привести к серьёзным последствиям, скандалам, публикациям в СМИ и штрафам" style="shape=note;size=20;whiteSpace=wrap;html=1;" vertex="1" parent="1">
          <mxGeometry x="1130" y="530" width="180" height="130" as="geometry" />
        </mxCell>
        <mxCell id="_o-piemT-sgfUzoHXEhJ-57" value="Утечка секретных данных имеет самый критический уровень риска и несёт собой самые тяжёлые последствия" style="shape=note;size=20;whiteSpace=wrap;html=1;" vertex="1" parent="1">
          <mxGeometry x="330" y="1060" width="180" height="130" as="geometry" />
        </mxCell>
      </root>
    </mxGraphModel>
  </diagram>
</mxfile>
